<svg xmlns="http://www.w3.org/2000/svg" viewBox="0 0 64 80" role="img" aria-label="M11 safe crossing and school zone world marker"><title>M11 safe crossing and school zone world marker</title><path d="M32 3C17 3 5 15 5 30c0 19 20 39 27 47 7-8 27-28 27-47C59 15 47 3 32 3Z" fill="#F3C659" stroke="#203743" stroke-width="2"/><circle cx="32" cy="30" r="23" fill="#FFF8E9"/><g transform="translate(14 12) scale(.56)">
      <path d="M12 49h40" stroke="#203743" stroke-width="3"/>
      <path d="M14 42h8m4 0h8m4 0h8m4 0h3M14 53h8m4 0h8m4 0h8m4 0h3" stroke="#FFF8E9" stroke-width="5" stroke-linecap="round"/>
      <path d="M32 8 52 34H12Z" fill="#F3C659" stroke="#203743" stroke-width="3" stroke-linejoin="round"/>
      <circle cx="32" cy="17" r="3" fill="#203743"/><path d="m32 21-3 7m3-5 6 4m-9 1-4 4m4-4 4 4" stroke="#203743" stroke-width="2.5" stroke-linecap="round"/></g></svg>
